<svg xmlns="http://www.w3.org/2000/svg" xmlns:xlink="http://www.w3.org/1999/xlink" xmlns:serif="http://www.serif.com/" viewBox="0 0 32 40" version="1.1" xml:space="preserve" style="" x="0px" y="0px" fill-rule="evenodd" clip-rule="evenodd" stroke-linejoin="round" stroke-miterlimit="2"><path d="M14.47,17l-11.47,-0l-0,12c-0,1.105 0.895,2 2,2l9.47,0l0,-14Zm3,0l0,14l9.53,0c1.105,0 2,-0.895 2,-2l0,-12l-11.53,0Zm-1.452,-10.751c-0.023,-0.617 -0.082,-1.31 -0.21,-1.945c-0.18,-0.888 -0.514,-1.665 -0.979,-2.13c-1.561,-1.561 -4.095,-1.561 -5.655,-0c-1.308,1.307 -1.52,3.297 -0.637,4.826l-5.537,0c-1.105,0 -2,0.895 -2,2c-0,1.11 -0,2.89 -0,4c-0,1.105 0.895,2 2,2l26,-0c1.105,-0 2,-0.895 2,-2l0,-4c0,-1.105 -0.895,-2 -2,-2l-5.502,0c0.883,-1.529 0.671,-3.519 -0.636,-4.826c-1.561,-1.561 -4.095,-1.561 -5.655,-0c-0.466,0.465 -0.8,1.242 -0.979,2.13c-0.129,0.635 -0.187,1.328 -0.21,1.945Zm3.709,0.693c-0.213,0.026 -1.724,0.058 -1.724,0.058c-0.002,-0.479 0.015,-1.089 0.089,-1.693c0.082,-0.681 0.184,-1.375 0.529,-1.719c0.78,-0.78 2.046,-0.78 2.827,-0c0.78,0.78 0.78,2.046 -0,2.827c-0.345,0.344 -1.039,0.445 -1.721,0.527Zm-5.694,0.058c-0,0 -1.511,-0.032 -1.725,-0.058c-0.682,-0.082 -1.376,-0.183 -1.72,-0.527c-0.78,-0.781 -0.78,-2.047 -0,-2.827c0.78,-0.78 2.046,-0.78 2.827,-0c0.344,0.344 0.446,1.038 0.529,1.719c0.073,0.604 0.091,1.214 0.089,1.693Z"/><text x="0" y="47" fill="#000000" font-size="5px" font-weight="bold" font-family="'Helvetica Neue', Helvetica, Arial-Unicode, Arial, Sans-serif">Created by Hary Murdiono JS</text><text x="0" y="52" fill="#000000" font-size="5px" font-weight="bold" font-family="'Helvetica Neue', Helvetica, Arial-Unicode, Arial, Sans-serif">from the Noun Project</text></svg>