<svg xmlns="http://www.w3.org/2000/svg" xmlns:xlink="http://www.w3.org/1999/xlink" version="1.0" id="Layer_1" x="0px" y="0px" style="enable-background:new 0 0 879 534;" xml:space="preserve" viewBox="95.12 199.31 680.98 139.88">
<style type="text/css">
	.st0{fill:#0FD297;}
	.st1{fill:none;}
</style>
<g>
	<path class="st0" d="M272.9,263.3c0.1-1.4-0.9-2.6-2.2-2.7c-0.2,0-0.3,0-0.5,0h-5.3V250h11.8c5.6,0,8.2,2.4,8.2,7.1v2.4   c0,2-0.2,3.6-0.2,3.6h0.2c3.1-7.4,12-14.7,21.9-14.7c10.9,0,17.2,4.9,19.2,14.7h0.2c3.6-7.8,12.5-14.7,22.9-14.7   c14.5,0,21.2,8.3,21.2,24.7v27.8c-0.1,1.4,0.9,2.6,2.2,2.7c0.2,0,0.3,0,0.5,0h5.3V314h-12.1c-5.8,0-8.2-2.4-8.2-8.2v-30.1   c0-9.1-1.8-16.1-11.2-16.1c-8.9,0-15.8,7.8-18,16.5c-0.7,2.9-1,5.8-1.1,8.7v29.4h-12.3v-38.4c0-8.3-1.3-16.1-11.1-16.1   c-9.4,0-16,7.8-18.5,17c-0.7,2.7-1,5.5-0.9,8.3v29.4h-12L272.9,263.3z"/>
	<path class="st0" d="M424.5,274.1h2.7v-0.5c0-11.2-4.2-15.4-14.1-15.4c-3.1,0-10.5,0.7-10.5,4.9v3.6h-11.6v-6.4   c0-10.5,16-12.1,22.3-12.1c20.9,0,26.5,10.9,26.5,25.2v27.4c-0.1,1.4,0.9,2.6,2.2,2.7c0.2,0,0.3,0,0.5,0h5.3V314H436   c-5.6,0-8-2.7-8-7.4c0-2.2,0.2-3.8,0.2-3.8H428c-3.7,7.9-11.7,12.9-20.5,12.7c-11.1,0-21.8-6.7-21.8-19.6   C385.6,275.4,413.6,274.1,424.5,274.1z M410.1,305.7c10.3,0,17.2-10.9,17.2-20.5V283h-3.3c-9.2,0-26.1,0.5-26.1,12.3   C398.2,300.6,402.1,305.7,410.1,305.7z"/>
	<path class="st0" d="M460.9,263.3c0.1-1.4-0.9-2.6-2.2-2.7c-0.2,0-0.3,0-0.5,0h-5.2V250h11.8c5.4,0,8.2,2.4,8.2,7.1v2.4   c0,2-0.2,3.6-0.2,3.6h0.2c2.5-5.6,10.1-14.7,24.1-14.7c15.2,0,22.1,8.3,22.1,24.7v27.7c-0.1,1.4,0.9,2.6,2.2,2.7c0.2,0,0.3,0,0.5,0   h5.3V314h-12.2c-5.8,0-8.2-2.4-8.2-8.2v-30.1c0-9.1-1.8-16.1-12.1-16.1c-10,0-17.8,6.5-20.3,15.8c-0.9,2.8-1.2,5.8-1.1,8.7v30.1   h-12.3V263.3z"/>
	<path class="st0" d="M563.3,248.4c14.9,0,19.8,10,19.8,10h0.2c0,0-0.2-2-0.2-4.4v-16.2c0.2-1.3-0.7-2.5-2-2.7c-0.2,0-0.5,0-0.7,0   h-5.3v-10.5h12.2c5.8,0,8.2,2.4,8.2,8.2V301c-0.1,1.4,0.9,2.6,2.2,2.7c0.2,0,0.3,0,0.5,0h5.3v10.5h-11.8c-5.6,0-7.8-2.5-7.8-6.9   c0-1.1,0.1-2.2,0.2-3.3h-0.2c0,0-5.3,11.6-21,11.6c-17.4,0-28.3-13.8-28.3-33.7C534.1,261.6,546.3,248.4,563.3,248.4z M583.5,282   c0-11.4-6-22.9-18.3-22.9c-10,0-18.5,8.3-18.5,23c0,14,7.4,23,18.1,23C574.4,305,583.5,298.3,583.5,282z"/>
	<path class="st0" d="M649.6,274.1h2.7v-0.5c0-11.2-4.2-15.4-14.1-15.4c-3.1,0-10.5,0.7-10.5,4.9v3.6h-11.6v-6.4   c0-10.5,16-12.1,22.3-12.1c20.8,0,26.5,10.9,26.5,25.2v27.4c-0.1,1.4,0.9,2.6,2.2,2.7c0.2,0,0.3,0,0.5,0h5.3V314h-11.6   c-5.8,0-8-2.7-8-7.4c0-2.2,0.2-3.8,0.2-3.8h-0.2c-3.7,7.9-11.7,12.9-20.5,12.7c-11.1,0-21.8-6.7-21.8-19.6   C611,275.4,638.9,274.1,649.6,274.1z M635.5,305.7c10.3,0,17.2-10.9,17.2-20.5V283h-3.3c-9.2,0-26.1,0.5-26.1,12.3   C623.3,300.6,627.3,305.7,635.5,305.7z"/>
	<path class="st0" d="M685.9,237.9c0.2-1.3-0.7-2.5-2-2.7c-0.2,0-0.5,0-0.7,0h-5.3v-10.5h12.2c5.8,0,8.2,2.4,8.2,8.2V301   c-0.1,1.4,0.9,2.6,2.2,2.7c0.2,0,0.3,0,0.5,0h5.3v10.5H694c-5.8,0-8.2-2.4-8.2-8.2V237.9z"/>
	<path class="st0" d="M752.8,274.1h2.7v-0.5c0-11.2-4.2-15.4-14.1-15.4c-3.1,0-10.5,0.7-10.5,4.9v3.6h-11.6v-6.4   c0-10.5,16-12.1,22.3-12.1c20.8,0,26.5,10.9,26.5,25.2v27.4c-0.1,1.4,0.9,2.6,2.2,2.7c0.2,0,0.3,0,0.5,0h5.3V314h-11.8   c-5.6,0-8-2.7-8-7.4c0-2.2,0.2-3.8,0.2-3.8h-0.2c-3.7,7.9-11.7,12.9-20.5,12.7c-11.1,0-21.8-6.7-21.8-19.6   C714,275.4,741.9,274.1,752.8,274.1z M738.5,305.7c10.3,0,17.2-10.9,17.2-20.5V283h-3.3c-9.2,0-26.1,0.5-26.1,12.3   C726.5,300.6,730.3,305.7,738.5,305.7z"/>
</g>
<path class="st0" d="M179.3,282.9c1.8,2.6,3.7,5.1,5.8,7.4c3.8,4.4,8.2,7.8,13.8,9.6c3.1,0.8,6.2,1.4,9.4,1.6c0.2,0,0.4,0,0.5,0.4  c1.7,3.1,2.4,6.6,2.2,10.1c0,0.3,0,0.6-0.2,0.9c0,0-0.2,0.2-0.2,0c-0.7-0.7-1.4-1.4-2.2-2c-2.5-2-5.6-3.2-8.9-3.4  c-4.4-0.1-8.3,2.6-9.8,6.7c-1.2,3.4-1.3,7.1-0.4,10.5c0,0.2,0,0.4,0.2,0.5v0.2c-1.3-0.4-2.5-1-3.6-1.8c-1.9-1.4-3.6-3.2-4.9-5.3  c-0.2-0.4,0-0.5,0-0.9c1.1-2.3,2-4.8,2.7-7.2c1.4-4.9,1.4-10.1,0-15c-1.2-3.9-2.6-7.7-4.3-11.4C179.3,283.2,179.1,283,179.3,282.9  C179,282.7,179.1,282.7,179.3,282.9z"/>
<path class="st0" d="M171.7,329.1c0,0.2-0.4,0.2-0.5,0c-1.6-4.7-4-9.1-6-13.4c-1.4-2.9-2.4-5.9-2.9-9.1l0,0c0-0.2,0.2-0.4,0.4-0.2  c5.6,2.5,12,2.5,17.6,0c0.2,0,0.4,0,0.4,0.2c-0.4,2.2-1,4.4-1.8,6.5c-1.5,4-3.4,7.6-5.2,11.4C172.8,326,172.2,327.5,171.7,329.1z"/>
<path class="st0" d="M171,275.1c0.2-0.2,0.5-0.2,0.5,0c0.2,0.5,0.5,1.3,0.7,1.8c1.6,4,3.4,7.8,5.1,11.8c0.6,1.3,0.9,2.4,1.5,3.6  c0.2,0.4,0.2,0.5-0.4,0.7c-4.5,1.8-9.6,1.8-14.1,0c-0.4-0.2-0.5-0.4-0.4-0.7c1.5-4.4,3.4-8.3,5.1-12.5  C169.7,278.1,170.4,276.5,171,275.1z"/>
<path class="st0" d="M213.2,301.9L213.2,301.9c3.2,0,6.3,0.3,9.4,0.9c0.4,0,0.4,0.4,0.4,0.5c0.7,4.4,0.6,8.9-0.4,13.2  c-1,5.2-3.4,10.1-6.9,14c-5.6,6.2-12.5,8.7-20.7,8.3c-7.3-0.4-14.2-3.1-19.8-7.8c-0.3-0.2-0.4-0.6-0.4-0.9c1-2.9,2.2-5.8,3.6-8.5  l0,0c0-0.2,0.2-0.2,0.4,0c6.7,8.5,18,10.9,26.8,5.4C213.8,322.2,217.2,312,213.2,301.9z"/>
<path class="st0" d="M163.6,283c-1.3,2.9-2.5,5.8-3.6,8.7c-1.8,5.4-2.7,10.9-1.4,16.7c0.8,3.1,1.9,6.1,3.3,9.1  c0.2,0.2,0.2,0.4,0,0.7c-1.8,3-4.4,5.4-7.6,6.9c-0.2,0.2-0.6,0.2-0.9,0.4c-0.1,0-0.2-0.1-0.2-0.2c0.2-1,0.4-1.9,0.5-2.9  c0.4-3.3,0.2-6.5-1.4-9.4c-2-4-6.4-6.1-10.7-5.1c-3.5,0.6-6.8,2.3-9.2,4.9l-0.4,0.4c0,0-0.2,0.2-0.2,0c-0.3-1.3-0.4-2.7-0.2-4  c0.3-2.4,1-4.8,2.2-6.9c0.1-0.3,0.4-0.4,0.7-0.4c2.6-0.1,5.1-0.6,7.6-1.2c4.9-1.3,9.4-3.9,13-7.6c2.8-3,5.4-6.1,7.8-9.4  C163.2,283.2,163.3,283,163.6,283C163.6,282.7,163.7,282.9,163.6,283z"/>
<path class="st0" d="M119.7,299.5c-0.2,0-0.4-0.2-0.2-0.4c3.3-3.8,5.8-8,8.7-12c1.8-2.6,3.9-5,6.3-7.1l0,0c0.2-0.2,0.4,0,0.4,0.2  c0.6,6.1,3.8,11.7,8.9,15.2c0.2,0.2,0.2,0.4,0,0.4c-2.1,0.8-4.3,1.3-6.5,1.6c-4.2,0.5-8.3,0.7-12.5,1.3  C122.9,299,121.3,299.4,119.7,299.5z"/>
<path class="st0" d="M166.3,272c0.4,0,0.6,0.4,0.4,0.5c-0.3,0.6-0.8,1.1-1.3,1.5l-7.6,10.3c-0.7,1.1-1.6,2-2.4,2.9  c-0.4,0.4-0.5,0.4-0.9,0c-3.9-3-6.4-7.4-7.1-12.3c0-0.5,0-0.5,0.5-0.7c4.4-0.9,8.9-1.3,13.4-1.8C163,272.3,164.6,272.2,166.3,272  L166.3,272z"/>
<path class="st0" d="M164.1,322c0-0.2,0.2,0,0.4,0c1.4,2.7,2.7,5.6,3.6,8.5c0.2,0.4-0.2,0.5-0.4,0.7c-3.4,2.8-7.4,5-11.6,6.4  c-5,1.7-10.4,2.1-15.6,0.9c-8-1.8-13.8-6.5-17.6-13.8c-3.3-6.5-4.4-13.9-3.1-21c0-0.3,0.1-0.5,0.4-0.5c0,0,0.1,0,0.1,0  c3-0.5,6-0.9,9.1-1.1l0,0c0.1,0,0.2,0.1,0.2,0.2c-4,10.2-0.5,21,8.7,25.9C146.9,332.5,157.2,330.5,164.1,322z"/>
<path class="st0" d="M163.6,255.7c-1.8-2.6-3.7-5.1-5.8-7.4c-3.8-4.4-8.2-7.8-13.8-9.6c-3.1-0.8-6.2-1.3-9.4-1.6  c-0.2,0-0.4,0-0.6-0.4c-1.7-3-2.5-6.5-2.2-10c0-0.3,0-0.6,0.2-0.9c0,0,0.2-0.2,0.2,0c0.7,0.7,1.4,1.4,2.2,2c2.5,2,5.6,3.2,8.9,3.4  c4.4,0.1,8.3-2.6,9.8-6.7c1.2-3.4,1.4-7,0.4-10.5c0-0.2,0-0.4-0.2-0.5v-0.2c1.3,0.4,2.5,1,3.6,1.7c1.9,1.4,3.6,3.2,4.9,5.3  c0.2,0.4,0,0.5,0,0.9c-1.1,2.4-2,4.8-2.7,7.3c-1.4,4.9-1.4,10.1,0,15c1.2,3.9,2.6,7.7,4.4,11.4C163.5,255.2,163.5,255.4,163.6,255.7  C163.7,255.8,163.6,255.8,163.6,255.7z"/>
<path class="st0" d="M171,209.4c0-0.2,0.4-0.2,0.5,0c1.6,4.7,4,9.1,6,13.4c1.4,2.9,2.4,5.9,2.9,9.1l0,0c0,0.2-0.2,0.4-0.4,0.2  c-5.6-2.5-12-2.5-17.6,0c-0.2,0-0.4,0-0.4-0.2c0.4-2.2,1-4.4,1.8-6.5c1.4-4,3.4-7.6,5.2-11.4C169.9,212.5,170.5,211,171,209.4z"/>
<path class="st0" d="M171.7,263.6c-0.2,0.2-0.5,0.2-0.5,0c-0.2-0.5-0.6-1.3-0.7-1.8c-1.6-4-3.4-7.8-5.1-11.8  c-0.6-1.3-0.9-2.4-1.4-3.6c-0.2-0.4-0.2-0.5,0.4-0.7c4.5-1.8,9.6-1.8,14.1,0c0.4,0.2,0.5,0.4,0.4,0.7c-1.4,4.4-3.4,8.3-5.1,12.5  C172.9,260.4,172.3,262,171.7,263.6z"/>
<path class="st0" d="M129.5,236.6c0,0.2,0,0.2-0.2,0.2c-3.1-0.2-6.2-0.5-9.3-1.1c-0.4,0-0.4-0.4-0.4-0.5c-0.7-4.4-0.6-8.9,0.4-13.2  c1-5.2,3.4-10.1,6.9-14c5.6-6.2,12.5-8.7,20.7-8.3c7.3,0.4,14.2,3.1,19.8,7.8c0.4,0.4,0.5,0.5,0.4,0.9c-1,2.9-2.2,5.8-3.6,8.5l0,0  c0,0.2-0.2,0.2-0.4,0c-6.7-8.5-17.9-10.8-26.8-5.4C128.9,216.3,125.5,226.5,129.5,236.6z"/>
<path class="st0" d="M179.1,255.5c1.3-2.9,2.5-5.8,3.6-8.7c1.8-5.4,2.7-10.9,1.4-16.7c-0.8-3.1-1.9-6.2-3.2-9.1  c-0.2-0.2-0.2-0.4,0-0.7c1.8-3,4.4-5.4,7.6-6.9c0.2-0.2,0.6-0.2,0.9-0.4c0.1,0,0.2,0.1,0.2,0.2c-0.2,1-0.4,1.9-0.5,2.9  c-0.4,3.3-0.2,6.5,1.4,9.4c2,4,6.4,6.1,10.7,5.1c3.5-0.6,6.8-2.3,9.2-4.9l0.4-0.4c0,0,0.2-0.2,0.2,0c0.3,1.3,0.4,2.7,0.2,4  c-0.3,2.4-1,4.8-2.2,6.9c-0.1,0.3-0.4,0.4-0.7,0.4c-2.6,0.2-5.1,0.6-7.6,1.3c-4.9,1.3-9.4,3.9-13,7.6c-2.8,3-5.4,6.1-7.8,9.4  C179.6,255.3,179.6,255.5,179.1,255.5L179.1,255.5z"/>
<path class="st0" d="M223,239c0.2,0,0.4,0.2,0.2,0.4c-3.3,3.8-5.8,8-8.7,12c-1.8,2.6-3.9,5-6.4,7.1l0,0c-0.2,0.2-0.4,0-0.4-0.2  c-0.6-6.1-3.8-11.7-8.9-15.2c-0.2-0.2-0.2-0.4,0-0.4c2.1-0.8,4.3-1.3,6.5-1.6c4.2-0.5,8.3-0.7,12.5-1.3  C219.6,239.6,221.3,239.3,223,239z"/>
<path class="st0" d="M176.4,266.5c-0.4,0-0.5-0.4-0.4-0.5c0.3-0.6,0.8-1.1,1.3-1.5l7.7-10.3c0.7-1.1,1.6-2,2.4-2.9  c0.4-0.4,0.5-0.4,0.9,0c3.9,3,6.4,7.4,7.1,12.3c0,0.5,0,0.5-0.5,0.7c-4.4,0.9-8.9,1.3-13.4,1.8C179.7,266.2,178.1,266.3,176.4,266.5  L176.4,266.5z"/>
<path class="st0" d="M178.6,216.5c0,0.2-0.2,0-0.4,0c-1.4-2.7-2.6-5.6-3.6-8.5c-0.2-0.4,0.2-0.5,0.4-0.7c3.4-2.8,7.4-5,11.6-6.4  c5-1.7,10.4-2.1,15.6-0.9c8,1.8,13.8,6.5,17.6,13.8c3.3,6.5,4.4,13.9,3.1,21c0,0.3-0.1,0.5-0.4,0.5c0,0-0.1,0-0.1,0  c-3,0.5-6,0.9-9.1,1.1l0,0c-0.1,0-0.2-0.1-0.2-0.2c4-10.2,0.5-21-8.7-25.9C196,206,185.5,208,178.6,216.5z"/>
<path class="st0" d="M187.1,269.1c3.1-0.4,6.2-0.7,9.4-1.3c5.6-1.1,10.9-3.1,15-7.1c2.3-2.2,4.4-4.7,6.2-7.4  c0.2-0.2,0.2-0.4,0.6-0.4c3.5,0.1,6.9,1.2,9.8,3.3c0.2,0.2,0.4,0.4,0.7,0.5v0.2c-1.1,0.4-2,0.5-2.9,0.9c-2.9,1.5-5.6,3.3-7.2,6  c-2.4,3.7-2,8.5,0.9,11.8c2.3,2.7,5.4,4.7,8.9,5.6c0.2,0,0.4,0.2,0.5,0.2c0,0,0.2,0,0.2,0.2c-1,0.9-2.2,1.7-3.4,2.2  c-2.2,1-4.6,1.5-7.1,1.6c-0.4,0-0.5-0.2-0.7-0.5c-1.4-2.2-3.1-4.2-4.9-6c-3.6-3.6-8.1-6.2-13-7.4c-3.9-1-7.9-1.7-12-2h-0.7  C186.9,269.2,186.9,269.1,187.1,269.1z"/>
<path class="st0" d="M223.6,298.8c0.2,0.2,0,0.4-0.2,0.4c-4.9-0.9-9.8-0.9-14.7-1.5c-3.2-0.2-6.4-0.9-9.4-2l0,0  c-0.2,0-0.2-0.4,0-0.4c5.1-3.5,8.3-9.1,8.7-15.2c0-0.2,0.2-0.4,0.4-0.2c1.8,1.4,3.4,3.1,4.7,4.9c2.5,3.3,4.9,6.9,7.2,10.1  C221.4,296.3,222.3,297.5,223.6,298.8z"/>
<path class="st0" d="M176.2,272.3c-0.2-0.2,0-0.5,0.4-0.5c0.7,0.1,1.3,0.2,2,0.2c4.2,0.5,8.5,0.9,12.7,1.5l3.8,0.5  c0.4,0,0.5,0.2,0.5,0.7c-0.6,4.9-3.2,9.3-7.1,12.3c-0.4,0.4-0.5,0.2-0.9-0.2c-2.9-3.4-5.4-7.1-8.2-10.7  C178.4,274.9,177.3,273.6,176.2,272.3L176.2,272.3z"/>
<path class="st0" d="M220.7,249.1c-0.2,0-0.2-0.2-0.2-0.4c1.8-2.5,3.6-5.1,5.6-7.4c0.4-0.4,0.6-0.2,0.7,0c4.2,1.5,8,3.9,11.2,6.9  c4,3.4,7,8,8.5,13.1c2.5,7.8,1.3,15.2-3.3,22.1c-4,6.1-9.9,10.7-16.7,13.2c-0.4,0.2-0.6,0.2-0.7-0.2c-2-2.3-3.8-4.8-5.4-7.4l0,0  c0-0.2,0-0.2,0.2-0.2c10.9-1.6,18.5-10.2,18.1-20.5C238.4,258.9,231.5,250.8,220.7,249.1z"/>
<path class="st0" d="M155.8,269.2c-3.1,0.4-6.2,0.7-9.4,1.3c-5.6,1.1-10.9,3.1-15,7.1c-2.4,2.2-4.4,4.7-6.2,7.4  c-0.2,0.2-0.2,0.4-0.5,0.4c-3.5-0.1-6.9-1.2-9.8-3.3c-0.2-0.2-0.4-0.4-0.7-0.5v-0.2c1.1-0.4,2-0.5,2.9-0.9c3.1-1.1,5.7-3.2,7.4-6  c2.4-3.7,2-8.5-0.9-11.8c-2.3-2.7-5.4-4.7-8.9-5.6c-0.2,0-0.4-0.2-0.5-0.2c-0.1,0-0.2-0.1-0.2-0.2c0,0,0,0,0,0  c1-0.9,2.2-1.7,3.4-2.2c2.2-1,4.6-1.5,7.1-1.6c0.4,0,0.6,0.2,0.7,0.5c1.4,2.2,3.1,4.2,4.9,6c3.6,3.7,8.1,6.2,13.1,7.4  c3.9,1,7.9,1.7,12,2h0.7C155.9,269.1,155.9,269.2,155.8,269.2z"/>
<path class="st0" d="M119.5,239.5c-0.2-0.2,0-0.4,0.2-0.4c4.9,0.9,9.8,0.9,14.7,1.5c3.2,0.2,6.4,0.9,9.4,2l0,0c0.2,0,0.2,0.4,0,0.4  c-5.1,3.5-8.3,9.1-8.7,15.2c0,0.2-0.2,0.4-0.4,0.2c-1.8-1.4-3.4-3.1-4.7-4.9c-2.5-3.3-4.9-6.9-7.3-10.1  C121.5,242.2,120.4,240.9,119.5,239.5z"/>
<path class="st0" d="M166.6,266.2c0.2,0.2,0,0.5-0.4,0.5c-0.7-0.1-1.3-0.2-2-0.2c-4.2-0.5-8.5-0.9-12.7-1.5l-3.8-0.5  c-0.4,0-0.5-0.2-0.5-0.7c0.6-4.9,3.2-9.3,7.1-12.3c0.4-0.4,0.5-0.2,0.9,0.2c2.9,3.4,5.4,7.1,8.2,10.7  C164.6,263.5,165.7,264.7,166.6,266.2L166.6,266.2z"/>
<path class="st0" d="M122.2,289.2c0.2,0,0.2,0.2,0.2,0.4c-1.8,2.5-3.6,5.1-5.6,7.4c-0.4,0.4-0.5,0.2-0.7,0c-4.2-1.5-8-3.8-11.2-6.9  c-4-3.4-7-8-8.5-13c-2.5-7.8-1.3-15.2,3.3-22.1c4-6.1,9.9-10.7,16.7-13.2c0.4-0.2,0.6-0.2,0.7,0.2c2,2.3,3.8,4.8,5.4,7.4l0,0  c0,0.2,0,0.2-0.2,0.2c-10.9,1.6-18.5,10.2-18.1,20.5C104.4,279.6,111.5,287.6,122.2,289.2z"/>
<rect x="79" y="175" class="st1" width="721" height="184"/>
</svg>