<svg xmlns="http://www.w3.org/2000/svg" viewBox="0 0 32 40" x="0px" y="0px"><path d="m24.98999,28.04999l-2.84998-8.75,7.45001-5.40997c.34998-.25.48999-.71002.35999-1.12006-.13-.40997-.52002-.69-.95001-.69h-9.20001l-2.84998-8.75c-.13-.40997-.52002-.68994-.95001-.68994s-.82001.27997-.95001.68994l-2.84998,8.75H3c-.42999,0-.82001.28003-.95001.69-.13.41003.01001.87006.35999,1.12006l7.45001,5.40997-2.84998,8.75c-.13.41998.02002.87.37,1.12.34998.26001.82001.26001,1.16998,0l7.45001-5.40997,7.45001,5.40997c.16998.13.38.19.58002.19.20996,0,.41998-.06.58997-.19.34998-.25.5-.70001.37-1.12Z"/><text x="0" y="47" fill="#000000" font-size="5px" font-weight="bold" font-family="'Helvetica Neue', Helvetica, Arial-Unicode, Arial, Sans-serif">Created by Contributor Icons</text><text x="0" y="52" fill="#000000" font-size="5px" font-weight="bold" font-family="'Helvetica Neue', Helvetica, Arial-Unicode, Arial, Sans-serif">from the Noun Project</text></svg>